<?xml version="1.0" standalone="no"?><!-- Generator: Gravit.io --><svg xmlns="http://www.w3.org/2000/svg" xmlns:xlink="http://www.w3.org/1999/xlink" style="isolation:isolate" viewBox="0 0 400 400" width="400" height="400"><defs><clipPath id="_clipPath_PPreTSCQIhsfjILM47I45PvflCnJIQX6"><rect width="400" height="400"/></clipPath></defs><g clip-path="url(#_clipPath_PPreTSCQIhsfjILM47I45PvflCnJIQX6)"><clipPath id="_clipPath_f1KqENl7cRqiZ5HeAyGYYSgDAR7n2iP6"><rect x="0" y="50" width="400" height="300" transform="matrix(1,0,0,1,0,0)" fill="rgb(255,255,255)"/></clipPath><g clip-path="url(#_clipPath_f1KqENl7cRqiZ5HeAyGYYSgDAR7n2iP6)"><g id="Group"><clipPath id="_clipPath_Q3JH28aTzx7uZYZeg3gQ2Z6KARs9eqYS"><rect x="0" y="51" width="400" height="300" transform="matrix(1,0,0,1,0,0)" fill="rgb(255,255,255)"/></clipPath><g clip-path="url(#_clipPath_Q3JH28aTzx7uZYZeg3gQ2Z6KARs9eqYS)"><g id="Group"><g id="Group"><g id="Group"><g opacity="0"><rect x="0" y="51" width="400" height="300" transform="matrix(1,0,0,1,0,0)" fill="rgb(248,248,248)"/></g></g><clipPath id="_clipPath_HP9YaqCMpEvLT9B2E7LnPaUykz2KqXUC"><path d=" M 71 78.721 L 91.828 78.721 C 159.361 78.721 214.107 133.467 214.107 201 C 214.107 268.533 159.361 323.279 91.828 323.279 L 71 323.279 L 71 269.53 L 91.828 269.53 C 129.676 269.53 160.358 238.848 160.358 201 C 160.358 163.152 129.676 132.47 91.828 132.47 L 71 132.47 L 71 78.721 L 71 78.721 Z  M 168.423 78.721 L 254.421 78.721 C 283.349 78.721 309.668 95.449 321.947 121.641 C 334.226 147.833 330.251 178.764 311.748 201 C 330.251 223.236 334.226 254.167 321.947 280.359 C 309.668 306.551 283.349 323.279 254.421 323.279 L 168.423 323.279 C 189.584 310.024 206.943 291.504 218.803 269.53 L 254.419 269.53 C 265.922 269.53 275.247 260.205 275.247 248.702 C 275.247 237.199 265.922 227.875 254.419 227.875 L 233.591 227.875 C 236.958 210.116 236.958 191.884 233.591 174.125 L 254.419 174.125 C 265.922 174.125 275.247 164.801 275.247 153.298 C 275.247 141.795 265.922 132.47 254.419 132.47 L 218.803 132.47 C 206.943 110.496 189.584 91.976 168.423 78.721 Z " fill="rgb(255,255,255)"/></clipPath><g clip-path="url(#_clipPath_HP9YaqCMpEvLT9B2E7LnPaUykz2KqXUC)"><g id="Group"><g id="Group"><g id="Group"><linearGradient id="_lgradient_0" x1="0%" y1="50%" x2="70.71067811865474%" y2="120.71067811865474%"><stop offset="60.35533905932737%" stop-opacity="1" style="stop-color:rgb(249,160,60)"/><stop offset="70.49053625633455%" stop-opacity="1" style="stop-color:rgb(247,151,78)"/></linearGradient><path d=" M -270.307 -195.4 L -270.307 610.837 L 535.93 610.837 L -270.307 -195.4 L -270.307 -195.4 Z " fill="url(#_lgradient_0)"/><linearGradient id="_lgradient_1" x1="0%" y1="50%" x2="70.71059041396516%" y2="120.71076582323556%"><stop offset="49.74877989762786%" stop-opacity="1" style="stop-color:rgb(184,78,81)"/><stop offset="64.59803151152921%" stop-opacity="1" style="stop-color:rgb(246,142,72)"/></linearGradient><path d=" M -125.184 -195.4 L 681.052 -195.4 L 681.052 610.837 L -125.184 -195.4 L -125.184 -195.4 Z " fill="url(#_lgradient_1)"/><linearGradient id="_lgradient_2" x1="0%" y1="50%" x2="66.0234994378125%" y2="125.10590870221311%"><stop offset="51.163252070082486%" stop-opacity="1" style="stop-color:rgb(242,109,88)"/><stop offset="72.13284259406205%" stop-opacity="1" style="stop-color:rgb(249,160,60)"/></linearGradient><line x1="-197.746" y1="-195.4" x2="608.491" y2="610.837" vector-effect="non-scaling-stroke" stroke-width="107.498" stroke="url(#_lgradient_2)" stroke-linejoin="miter" stroke-linecap="butt" stroke-miterlimit="4"/></g></g></g></g></g></g></g></g></g></g></svg>