<svg width="400" height="400"><g transform="translate(40,20)"><g class="axis axis--x" transform="translate(0,350)" fill="none" font-size="10" font-family="sans-serif" text-anchor="middle"><path class="domain" stroke="#000" d="M0.5,6V0.5H340.5V6"></path><g class="tick" opacity="1" transform="translate(30.65573770491804,0)"><line stroke="#000" y2="6"></line><text fill="#000" y="9" dy="0.71em">Oct</text></g><g class="tick" opacity="1" transform="translate(86.39344262295083,0)"><line stroke="#000" y2="6"></line><text fill="#000" y="9" dy="0.71em">Nov</text></g><g class="tick" opacity="1" transform="translate(142.1311475409836,0)"><line stroke="#000" y2="6"></line><text fill="#000" y="9" dy="0.71em">Dec</text></g><g class="tick" opacity="1" transform="translate(197.86885245901638,0)"><line stroke="#000" y2="6"></line><text fill="#000" y="9" dy="0.71em">Jan</text></g><g class="tick" opacity="1" transform="translate(253.60655737704917,0)"><line stroke="#000" y2="6"></line><text fill="#000" y="9" dy="0.71em">Feb</text></g><g class="tick" opacity="1" transform="translate(309.34426229508193,0)"><line stroke="#000" y2="6"></line><text fill="#000" y="9" dy="0.71em">Mar</text></g></g><g class="axis axis--y" fill="none" font-size="10" font-family="sans-serif" text-anchor="end"><path class="domain" stroke="#000" d="M-6,350.5H0.5V0.5H-6"></path><g class="tick" opacity="1" transform="translate(0,350.5)"><line stroke="#000" x2="-6"></line><text fill="#000" x="-9" dy="0.32em">0</text></g><g class="tick" opacity="1" transform="translate(0,305.16321243523316)"><line stroke="#000" x2="-6"></line><text fill="#000" x="-9" dy="0.32em">1</text></g><g class="tick" opacity="1" transform="translate(0,259.8264248704663)"><line stroke="#000" x2="-6"></line><text fill="#000" x="-9" dy="0.32em">2</text></g><g class="tick" opacity="1" transform="translate(0,214.4896373056995)"><line stroke="#000" x2="-6"></line><text fill="#000" x="-9" dy="0.32em">3</text></g><g class="tick" opacity="1" transform="translate(0,169.15284974093262)"><line stroke="#000" x2="-6"></line><text fill="#000" x="-9" dy="0.32em">4</text></g><g class="tick" opacity="1" transform="translate(0,123.81606217616581)"><line stroke="#000" x2="-6"></line><text fill="#000" x="-9" dy="0.32em">5</text></g><g class="tick" opacity="1" transform="translate(0,78.47927461139898)"><line stroke="#000" x2="-6"></line><text fill="#000" x="-9" dy="0.32em">6</text></g><g class="tick" opacity="1" transform="translate(0,33.14248704663214)"><line stroke="#000" x2="-6"></line><text fill="#000" x="-9" dy="0.32em">7</text></g><text transform="rotate(-90)" y="6" dy="0.7em" fill="#DC4404" text-anchor="end">Inches</text></g><rect class="bar" x="5.5737704918032875" y="209.00259067357513" width="50.1639344262295" height="140.99740932642487"></rect><rect class="bar" x="61.31147540983607" y="35.816062176165815" width="50.1639344262295" height="314.1839378238342"></rect><rect class="bar" x="117.04918032786885" y="0" width="50.1639344262295" height="350"></rect><rect class="bar" x="172.78688524590163" y="58.93782383419688" width="50.1639344262295" height="291.0621761658031"></rect><rect class="bar" x="228.52459016393442" y="117.87564766839378" width="50.1639344262295" height="232.12435233160622"></rect><rect class="bar" x="284.2622950819672" y="148.25129533678754" width="50.1639344262295" height="201.74870466321246"></rect></g></svg>