<?xml version="1.0" standalone="no"?><!-- Generator: Gravit.io --><svg xmlns="http://www.w3.org/2000/svg" xmlns:xlink="http://www.w3.org/1999/xlink" style="isolation:isolate" viewBox="0 0 400 400" width="400" height="400"><defs><clipPath id="_clipPath_AOM9fjxj0Yrt3Mmd3qykKGIlKztymWzZ"><rect width="400" height="400"/></clipPath></defs><g clip-path="url(#_clipPath_AOM9fjxj0Yrt3Mmd3qykKGIlKztymWzZ)"><g id="barchart"><g id="Group"><path d=" M 39.569 341.282 L 39.569 336.325 L 379 336.325 L 379 341.282" fill="none" vector-effect="non-scaling-stroke" stroke-width="1" stroke="rgb(0,0,0)" stroke-linejoin="miter" stroke-linecap="butt" stroke-miterlimit="4"/><g id="Group"><line x1="69.674" y1="335.875" x2="69.674" y2="341.282" vector-effect="non-scaling-stroke" stroke-width="1" stroke="rgb(0,0,0)" stroke-linejoin="miter" stroke-linecap="butt" stroke-miterlimit="4"/><g transform="matrix(1.011,0,0,0.907,50.234,337.636)"><text transform="matrix(1,0,0,1,0,19.239)" style="font-family:&quot;Open Sans&quot;;font-weight:400;font-size:18px;font-style:normal;fill:#DC4404;stroke:none;">Oct</text></g></g><g id="Group"><line x1="125.318" y1="335.875" x2="125.318" y2="341.282" vector-effect="non-scaling-stroke" stroke-width="1" stroke="rgb(0,0,0)" stroke-linejoin="miter" stroke-linecap="butt" stroke-miterlimit="4"/><g transform="matrix(1.011,0,0,0.907,107.027,337.636)"><text transform="matrix(1,0,0,1,0,19.239)" style="font-family:&quot;Open Sans&quot;;font-weight:400;font-size:18px;font-style:normal;fill:#DC4404;stroke:none;">Nov</text></g></g><g id="Group"><line x1="180.963" y1="335.875" x2="180.963" y2="341.282" vector-effect="non-scaling-stroke" stroke-width="1" stroke="rgb(0,0,0)" stroke-linejoin="miter" stroke-linecap="butt" stroke-miterlimit="4"/><g transform="matrix(1.011,0,0,0.907,166.739,337.636)"><text transform="matrix(1,0,0,1,0,19.239)" style="font-family:&quot;Open Sans&quot;;font-weight:400;font-size:18px;font-style:normal;fill:#DC4404;stroke:none;">Dec</text></g></g><g id="Group"><line x1="236.607" y1="335.875" x2="236.607" y2="341.282" vector-effect="non-scaling-stroke" stroke-width="1" stroke="rgb(0,0,0)" stroke-linejoin="miter" stroke-linecap="butt" stroke-miterlimit="4"/><g transform="matrix(1.011,0,0,0.907,223.905,337.636)"><text transform="matrix(1,0,0,1,1.406,19.239)" style="font-family:&quot;Open Sans&quot;;font-weight:400;font-size:18px;font-style:normal;fill:#DC4404;stroke:none;">Jan</text></g></g><g id="Group"><line x1="292.252" y1="335.875" x2="292.252" y2="341.282" vector-effect="non-scaling-stroke" stroke-width="1" stroke="rgb(0,0,0)" stroke-linejoin="miter" stroke-linecap="butt" stroke-miterlimit="4"/><g transform="matrix(1.011,0,0,0.907,275.532,337.636)"><text transform="matrix(1,0,0,1,0,19.239)" style="font-family:&quot;Open Sans&quot;;font-weight:400;font-size:18px;font-style:normal;fill:#DC4404;stroke:none;">Feb</text></g></g><g id="Group"><line x1="347.896" y1="335.875" x2="347.896" y2="341.282" vector-effect="non-scaling-stroke" stroke-width="1" stroke="rgb(0,0,0)" stroke-linejoin="miter" stroke-linecap="butt" stroke-miterlimit="4"/><g transform="matrix(1.011,0,0,0.907,332.212,337.636)"><text transform="matrix(1,0,0,1,0,19.239)" style="font-family:&quot;Open Sans&quot;;font-weight:400;font-size:18px;font-style:normal;fill:#DC4404;stroke:none;">Mar</text></g></g></g><g id="Group"><path d=" M 33.08 337.309 L 39.569 337.309 L 39.569 124.293 L 39.569 33.383 L 33.08 33.383" fill="none" vector-effect="non-scaling-stroke" stroke-width="1" stroke="rgb(0,0,0)" stroke-linejoin="miter" stroke-linecap="butt" stroke-miterlimit="4"/><g id="Group"><line x1="39.07" y1="337.309" x2="33.08" y2="337.309" vector-effect="non-scaling-stroke" stroke-width="1" stroke="rgb(0,0,0)" stroke-linejoin="miter" stroke-linecap="butt" stroke-miterlimit="4"/><g transform="matrix(1.011,0,0,0.874,19,322.836)"><text transform="matrix(1,0,0,1,0.354,19.239)" style="font-family:&quot;Open Sans&quot;;font-weight:400;font-size:18px;font-style:normal;fill:#DC4404;stroke:none;">0</text></g></g><g id="Group"><line x1="39.07" y1="297.94" x2="33.08" y2="297.94" vector-effect="non-scaling-stroke" stroke-width="1" stroke="rgb(0,0,0)" stroke-linejoin="miter" stroke-linecap="butt" stroke-miterlimit="4"/><g transform="matrix(1.011,0,0,0.874,19,285.131)"><text transform="matrix(1,0,0,1,0.354,19.239)" style="font-family:&quot;Open Sans&quot;;font-weight:400;font-size:18px;font-style:normal;fill:#DC4404;stroke:none;">1</text></g></g><g id="Group"><line x1="39.07" y1="258.572" x2="33.08" y2="258.572" vector-effect="non-scaling-stroke" stroke-width="1" stroke="rgb(0,0,0)" stroke-linejoin="miter" stroke-linecap="butt" stroke-miterlimit="4"/><g transform="matrix(1.011,0,0,0.874,19,246.13)"><text transform="matrix(1,0,0,1,0.354,19.239)" style="font-family:&quot;Open Sans&quot;;font-weight:400;font-size:18px;font-style:normal;fill:#DC4404;stroke:none;">2</text></g></g><g id="Group"><line x1="39.07" y1="219.203" x2="33.08" y2="219.203" vector-effect="non-scaling-stroke" stroke-width="1" stroke="rgb(0,0,0)" stroke-linejoin="miter" stroke-linecap="butt" stroke-miterlimit="4"/><g transform="matrix(1.011,0,0,0.874,19,207.13)"><text transform="matrix(1,0,0,1,0.354,19.239)" style="font-family:&quot;Open Sans&quot;;font-weight:400;font-size:18px;font-style:normal;fill:#DC4404;stroke:none;">3</text></g></g><g id="Group"><line x1="39.07" y1="179.834" x2="33.08" y2="179.834" vector-effect="non-scaling-stroke" stroke-width="1" stroke="rgb(0,0,0)" stroke-linejoin="miter" stroke-linecap="butt" stroke-miterlimit="4"/><g transform="matrix(1.011,0,0,0.874,19,168.129)"><text transform="matrix(1,0,0,1,0.354,19.239)" style="font-family:&quot;Open Sans&quot;;font-weight:400;font-size:18px;font-style:normal;fill:#DC4404;stroke:none;">4</text></g></g><g id="Group"><line x1="39.07" y1="140.466" x2="33.08" y2="140.466" vector-effect="non-scaling-stroke" stroke-width="1" stroke="rgb(0,0,0)" stroke-linejoin="miter" stroke-linecap="butt" stroke-miterlimit="4"/><g transform="matrix(1.011,0,0,0.874,19,129.129)"><text transform="matrix(1,0,0,1,0.354,19.239)" style="font-family:&quot;Open Sans&quot;;font-weight:400;font-size:18px;font-style:normal;fill:#DC4404;stroke:none;">5</text></g></g><g id="Group"><line x1="39.07" y1="101.097" x2="33.08" y2="101.097" vector-effect="non-scaling-stroke" stroke-width="1" stroke="rgb(0,0,0)" stroke-linejoin="miter" stroke-linecap="butt" stroke-miterlimit="4"/><g transform="matrix(1.011,0,0,0.874,19,90.128)"><text transform="matrix(1,0,0,1,0.354,19.239)" style="font-family:&quot;Open Sans&quot;;font-weight:400;font-size:18px;font-style:normal;fill:#DC4404;stroke:none;">6</text></g></g><g id="Group"><line x1="39.07" y1="61.728" x2="33.08" y2="61.728" vector-effect="non-scaling-stroke" stroke-width="1" stroke="rgb(0,0,0)" stroke-linejoin="miter" stroke-linecap="butt" stroke-miterlimit="4"/><g transform="matrix(1.011,0,0,0.874,19,51.128)"><text transform="matrix(1,0,0,1,0.354,19.239)" style="font-family:&quot;Open Sans&quot;;font-weight:400;font-size:18px;font-style:normal;fill:#DC4404;stroke:none;">7</text></g></g><g transform="matrix(0,-0.874,1.011,0,46.541,81.148)"><text transform="matrix(1,0,0,1,0,19.239)" style="font-family:&quot;Open Sans&quot;;font-weight:400;font-size:18px;font-style:normal;fill:#DC4404;stroke:none;">Inches</text></g></g><rect x="45.158" y="212.704" width="50.702" height="123.256" transform="matrix(1,0,0,1,0,0)" fill="rgb(243,187,59)" vector-effect="non-scaling-stroke" stroke-width="1" stroke="rgb(220,68,4)" stroke-linejoin="miter" stroke-linecap="butt" stroke-miterlimit="4"/><rect x="101.786" y="61.309" width="50.702" height="274.65" transform="matrix(1,0,0,1,0,0)" fill="rgb(243,187,59)" vector-effect="non-scaling-stroke" stroke-width="1" stroke="rgb(220,68,4)" stroke-linejoin="miter" stroke-linecap="butt" stroke-miterlimit="4"/><rect x="158.414" y="30" width="50.702" height="305.959" transform="matrix(1,0,0,1,0,0)" fill="rgb(243,187,59)" vector-effect="non-scaling-stroke" stroke-width="1" stroke="rgb(220,68,4)" stroke-linejoin="miter" stroke-linecap="butt" stroke-miterlimit="4"/><rect x="215.042" y="81.522" width="50.702" height="254.438" transform="matrix(1,0,0,1,0,0)" fill="rgb(243,187,59)" vector-effect="non-scaling-stroke" stroke-width="1" stroke="rgb(220,68,4)" stroke-linejoin="miter" stroke-linecap="butt" stroke-miterlimit="4"/><rect x="271.67" y="133.043" width="50.702" height="202.916" transform="matrix(1,0,0,1,0,0)" fill="rgb(243,187,59)" vector-effect="non-scaling-stroke" stroke-width="1" stroke="rgb(220,68,4)" stroke-linejoin="miter" stroke-linecap="butt" stroke-miterlimit="4"/><rect x="328.298" y="159.597" width="50.702" height="176.362" transform="matrix(1,0,0,1,0,0)" fill="rgb(243,187,59)" vector-effect="non-scaling-stroke" stroke-width="1" stroke="rgb(220,68,4)" stroke-linejoin="miter" stroke-linecap="butt" stroke-miterlimit="4"/></g></g></svg>